<mxfile host="app.diagrams.net" modified="2023-01-14T15:52:50.364Z" agent="5.0 (X11; Ubuntu)" version="20.8.5" etag="N7bDRqE2vSPTwYbRvZTV" type="github">
  <diagram id="6ge4NawpuEQloFby5inr" name="Page-1">
    <mxGraphModel dx="794" dy="520" grid="1" gridSize="10" guides="1" tooltips="1" connect="1" arrows="1" fold="1" page="1" pageScale="1" pageWidth="850" pageHeight="1100" math="0" shadow="0">
      <root>
        <mxCell id="0" />
        <mxCell id="1" parent="0" />
        <mxCell id="eXfUIlzydASTsSaG7gEn-3" value="Request" style="edgeStyle=orthogonalEdgeStyle;rounded=0;orthogonalLoop=1;jettySize=auto;html=1;entryX=0;entryY=0.25;entryDx=0;entryDy=0;exitX=1;exitY=0.3333333333333333;exitDx=0;exitDy=0;exitPerimeter=0;" edge="1" parent="1" source="eXfUIlzydASTsSaG7gEn-1" target="eXfUIlzydASTsSaG7gEn-2">
          <mxGeometry relative="1" as="geometry" />
        </mxCell>
        <mxCell id="eXfUIlzydASTsSaG7gEn-1" value="Client" style="shape=umlActor;verticalLabelPosition=bottom;verticalAlign=top;html=1;outlineConnect=0;" vertex="1" parent="1">
          <mxGeometry x="50" y="100" width="30" height="60" as="geometry" />
        </mxCell>
        <mxCell id="eXfUIlzydASTsSaG7gEn-5" value="Request" style="edgeStyle=orthogonalEdgeStyle;rounded=0;orthogonalLoop=1;jettySize=auto;html=1;entryX=0;entryY=0.25;entryDx=0;entryDy=0;exitX=1;exitY=0.25;exitDx=0;exitDy=0;" edge="1" parent="1" source="eXfUIlzydASTsSaG7gEn-2" target="eXfUIlzydASTsSaG7gEn-4">
          <mxGeometry relative="1" as="geometry" />
        </mxCell>
        <mxCell id="eXfUIlzydASTsSaG7gEn-8" value="Response" style="edgeStyle=orthogonalEdgeStyle;rounded=0;orthogonalLoop=1;jettySize=auto;html=1;entryX=1;entryY=1;entryDx=0;entryDy=0;entryPerimeter=0;exitX=0;exitY=1;exitDx=0;exitDy=0;" edge="1" parent="1" source="eXfUIlzydASTsSaG7gEn-2" target="eXfUIlzydASTsSaG7gEn-1">
          <mxGeometry relative="1" as="geometry">
            <Array as="points">
              <mxPoint x="170" y="160" />
              <mxPoint x="170" y="160" />
            </Array>
          </mxGeometry>
        </mxCell>
        <mxCell id="eXfUIlzydASTsSaG7gEn-2" value="micro-service-a" style="rounded=1;whiteSpace=wrap;html=1;" vertex="1" parent="1">
          <mxGeometry x="240" y="100" width="120" height="60" as="geometry" />
        </mxCell>
        <mxCell id="eXfUIlzydASTsSaG7gEn-6" value="Response" style="edgeStyle=orthogonalEdgeStyle;rounded=0;orthogonalLoop=1;jettySize=auto;html=1;exitX=0;exitY=0.75;exitDx=0;exitDy=0;entryX=1;entryY=0.75;entryDx=0;entryDy=0;" edge="1" parent="1" source="eXfUIlzydASTsSaG7gEn-4" target="eXfUIlzydASTsSaG7gEn-2">
          <mxGeometry relative="1" as="geometry" />
        </mxCell>
        <mxCell id="eXfUIlzydASTsSaG7gEn-4" value="micro-service-b" style="rounded=1;whiteSpace=wrap;html=1;" vertex="1" parent="1">
          <mxGeometry x="490" y="100" width="120" height="60" as="geometry" />
        </mxCell>
        <mxCell id="eXfUIlzydASTsSaG7gEn-9" value="&lt;h1&gt;Sincrona&lt;br&gt;&lt;/h1&gt;" style="text;html=1;strokeColor=none;fillColor=none;spacing=5;spacingTop=-20;whiteSpace=wrap;overflow=hidden;rounded=0;" vertex="1" parent="1">
          <mxGeometry x="100" y="60" width="140" height="40" as="geometry" />
        </mxCell>
        <mxCell id="eXfUIlzydASTsSaG7gEn-18" value="&lt;h1&gt;Sincrona&lt;br&gt;&lt;/h1&gt;" style="text;html=1;strokeColor=none;fillColor=none;spacing=5;spacingTop=-20;whiteSpace=wrap;overflow=hidden;rounded=0;" vertex="1" parent="1">
          <mxGeometry x="370" y="60" width="140" height="40" as="geometry" />
        </mxCell>
        <mxCell id="eXfUIlzydASTsSaG7gEn-19" value="1.Request" style="edgeStyle=orthogonalEdgeStyle;rounded=0;orthogonalLoop=1;jettySize=auto;html=1;entryX=0;entryY=0.25;entryDx=0;entryDy=0;exitX=1;exitY=0.3333333333333333;exitDx=0;exitDy=0;exitPerimeter=0;" edge="1" parent="1" source="eXfUIlzydASTsSaG7gEn-20" target="eXfUIlzydASTsSaG7gEn-23">
          <mxGeometry relative="1" as="geometry" />
        </mxCell>
        <mxCell id="eXfUIlzydASTsSaG7gEn-20" value="Client" style="shape=umlActor;verticalLabelPosition=bottom;verticalAlign=top;html=1;outlineConnect=0;" vertex="1" parent="1">
          <mxGeometry x="50" y="240" width="30" height="60" as="geometry" />
        </mxCell>
        <mxCell id="eXfUIlzydASTsSaG7gEn-21" value="2.Request" style="edgeStyle=orthogonalEdgeStyle;rounded=0;orthogonalLoop=1;jettySize=auto;html=1;entryX=0;entryY=0.25;entryDx=0;entryDy=0;exitX=1;exitY=0.25;exitDx=0;exitDy=0;" edge="1" parent="1" source="eXfUIlzydASTsSaG7gEn-23" target="eXfUIlzydASTsSaG7gEn-25">
          <mxGeometry relative="1" as="geometry" />
        </mxCell>
        <mxCell id="eXfUIlzydASTsSaG7gEn-22" value="4.Response" style="edgeStyle=orthogonalEdgeStyle;rounded=0;orthogonalLoop=1;jettySize=auto;html=1;entryX=1;entryY=1;entryDx=0;entryDy=0;entryPerimeter=0;exitX=0;exitY=1;exitDx=0;exitDy=0;" edge="1" parent="1" source="eXfUIlzydASTsSaG7gEn-23" target="eXfUIlzydASTsSaG7gEn-20">
          <mxGeometry relative="1" as="geometry">
            <Array as="points">
              <mxPoint x="170" y="300" />
              <mxPoint x="170" y="300" />
            </Array>
          </mxGeometry>
        </mxCell>
        <mxCell id="eXfUIlzydASTsSaG7gEn-23" value="micro-service-a" style="rounded=1;whiteSpace=wrap;html=1;" vertex="1" parent="1">
          <mxGeometry x="240" y="240" width="120" height="60" as="geometry" />
        </mxCell>
        <mxCell id="eXfUIlzydASTsSaG7gEn-24" value="3.Response" style="edgeStyle=orthogonalEdgeStyle;rounded=0;orthogonalLoop=1;jettySize=auto;html=1;exitX=0;exitY=0.75;exitDx=0;exitDy=0;entryX=1;entryY=0.75;entryDx=0;entryDy=0;" edge="1" parent="1" source="eXfUIlzydASTsSaG7gEn-25" target="eXfUIlzydASTsSaG7gEn-23">
          <mxGeometry relative="1" as="geometry" />
        </mxCell>
        <mxCell id="eXfUIlzydASTsSaG7gEn-25" value="micro-service-b" style="rounded=1;whiteSpace=wrap;html=1;" vertex="1" parent="1">
          <mxGeometry x="490" y="240" width="120" height="60" as="geometry" />
        </mxCell>
        <mxCell id="eXfUIlzydASTsSaG7gEn-26" value="&lt;h1&gt;Sincrona&lt;br&gt;&lt;/h1&gt;" style="text;html=1;strokeColor=none;fillColor=none;spacing=5;spacingTop=-20;whiteSpace=wrap;overflow=hidden;rounded=0;" vertex="1" parent="1">
          <mxGeometry x="100" y="200" width="140" height="40" as="geometry" />
        </mxCell>
        <mxCell id="eXfUIlzydASTsSaG7gEn-27" value="&lt;h1&gt;Assincrona&lt;br&gt;&lt;/h1&gt;" style="text;html=1;strokeColor=none;fillColor=none;spacing=5;spacingTop=-20;whiteSpace=wrap;overflow=hidden;rounded=0;" vertex="1" parent="1">
          <mxGeometry x="355" y="200" width="140" height="40" as="geometry" />
        </mxCell>
        <mxCell id="eXfUIlzydASTsSaG7gEn-28" value="1.Request" style="edgeStyle=orthogonalEdgeStyle;rounded=0;orthogonalLoop=1;jettySize=auto;html=1;entryX=0;entryY=0.25;entryDx=0;entryDy=0;exitX=1;exitY=0.3333333333333333;exitDx=0;exitDy=0;exitPerimeter=0;" edge="1" parent="1" source="eXfUIlzydASTsSaG7gEn-29" target="eXfUIlzydASTsSaG7gEn-32">
          <mxGeometry relative="1" as="geometry" />
        </mxCell>
        <mxCell id="eXfUIlzydASTsSaG7gEn-29" value="Client" style="shape=umlActor;verticalLabelPosition=bottom;verticalAlign=top;html=1;outlineConnect=0;" vertex="1" parent="1">
          <mxGeometry x="50" y="390" width="30" height="60" as="geometry" />
        </mxCell>
        <mxCell id="eXfUIlzydASTsSaG7gEn-30" value="2.Request" style="edgeStyle=orthogonalEdgeStyle;rounded=0;orthogonalLoop=1;jettySize=auto;html=1;entryX=0;entryY=0.25;entryDx=0;entryDy=0;exitX=1;exitY=0.25;exitDx=0;exitDy=0;" edge="1" parent="1" source="eXfUIlzydASTsSaG7gEn-32" target="eXfUIlzydASTsSaG7gEn-34">
          <mxGeometry relative="1" as="geometry" />
        </mxCell>
        <mxCell id="eXfUIlzydASTsSaG7gEn-31" value="3.Response" style="edgeStyle=orthogonalEdgeStyle;rounded=0;orthogonalLoop=1;jettySize=auto;html=1;entryX=1;entryY=1;entryDx=0;entryDy=0;entryPerimeter=0;exitX=0;exitY=1;exitDx=0;exitDy=0;" edge="1" parent="1" source="eXfUIlzydASTsSaG7gEn-32" target="eXfUIlzydASTsSaG7gEn-29">
          <mxGeometry relative="1" as="geometry">
            <Array as="points">
              <mxPoint x="170" y="450" />
              <mxPoint x="170" y="450" />
            </Array>
          </mxGeometry>
        </mxCell>
        <mxCell id="eXfUIlzydASTsSaG7gEn-32" value="micro-service-a" style="rounded=1;whiteSpace=wrap;html=1;" vertex="1" parent="1">
          <mxGeometry x="240" y="390" width="120" height="60" as="geometry" />
        </mxCell>
        <mxCell id="eXfUIlzydASTsSaG7gEn-33" value="4.Response" style="edgeStyle=orthogonalEdgeStyle;rounded=0;orthogonalLoop=1;jettySize=auto;html=1;exitX=0.5;exitY=1;exitDx=0;exitDy=0;entryX=1;entryY=1;entryDx=0;entryDy=0;entryPerimeter=0;fillColor=#f8cecc;strokeColor=#b85450;fontColor=#FF0000;" edge="1" parent="1" source="eXfUIlzydASTsSaG7gEn-34" target="eXfUIlzydASTsSaG7gEn-29">
          <mxGeometry relative="1" as="geometry">
            <Array as="points">
              <mxPoint x="550" y="480" />
              <mxPoint x="80" y="480" />
            </Array>
          </mxGeometry>
        </mxCell>
        <mxCell id="eXfUIlzydASTsSaG7gEn-34" value="micro-service-b" style="rounded=1;whiteSpace=wrap;html=1;" vertex="1" parent="1">
          <mxGeometry x="490" y="390" width="120" height="60" as="geometry" />
        </mxCell>
        <mxCell id="eXfUIlzydASTsSaG7gEn-35" value="&lt;h1&gt;Sincrona&lt;br&gt;&lt;/h1&gt;" style="text;html=1;strokeColor=none;fillColor=none;spacing=5;spacingTop=-20;whiteSpace=wrap;overflow=hidden;rounded=0;" vertex="1" parent="1">
          <mxGeometry x="100" y="350" width="140" height="40" as="geometry" />
        </mxCell>
        <mxCell id="eXfUIlzydASTsSaG7gEn-36" value="&lt;h1&gt;Assincrona&lt;br&gt;&lt;/h1&gt;" style="text;html=1;strokeColor=none;fillColor=none;spacing=5;spacingTop=-20;whiteSpace=wrap;overflow=hidden;rounded=0;" vertex="1" parent="1">
          <mxGeometry x="355" y="350" width="140" height="40" as="geometry" />
        </mxCell>
        <mxCell id="eXfUIlzydASTsSaG7gEn-37" value="1.Request" style="edgeStyle=orthogonalEdgeStyle;rounded=0;orthogonalLoop=1;jettySize=auto;html=1;entryX=0;entryY=0.25;entryDx=0;entryDy=0;exitX=1;exitY=0.3333333333333333;exitDx=0;exitDy=0;exitPerimeter=0;" edge="1" parent="1" source="eXfUIlzydASTsSaG7gEn-38" target="eXfUIlzydASTsSaG7gEn-41">
          <mxGeometry relative="1" as="geometry" />
        </mxCell>
        <mxCell id="eXfUIlzydASTsSaG7gEn-38" value="Client" style="shape=umlActor;verticalLabelPosition=bottom;verticalAlign=top;html=1;outlineConnect=0;" vertex="1" parent="1">
          <mxGeometry x="50" y="580" width="30" height="60" as="geometry" />
        </mxCell>
        <mxCell id="eXfUIlzydASTsSaG7gEn-39" value="2.Request" style="edgeStyle=orthogonalEdgeStyle;rounded=0;orthogonalLoop=1;jettySize=auto;html=1;entryX=0;entryY=0.25;entryDx=0;entryDy=0;exitX=1;exitY=0.25;exitDx=0;exitDy=0;fontColor=#0000FF;strokeColor=#0000FF;" edge="1" parent="1" source="eXfUIlzydASTsSaG7gEn-41" target="eXfUIlzydASTsSaG7gEn-43">
          <mxGeometry relative="1" as="geometry" />
        </mxCell>
        <mxCell id="eXfUIlzydASTsSaG7gEn-40" value="4.Response" style="edgeStyle=orthogonalEdgeStyle;rounded=0;orthogonalLoop=1;jettySize=auto;html=1;entryX=1;entryY=1;entryDx=0;entryDy=0;entryPerimeter=0;exitX=0;exitY=1;exitDx=0;exitDy=0;" edge="1" parent="1" source="eXfUIlzydASTsSaG7gEn-41" target="eXfUIlzydASTsSaG7gEn-38">
          <mxGeometry relative="1" as="geometry">
            <Array as="points">
              <mxPoint x="170" y="640" />
              <mxPoint x="170" y="640" />
            </Array>
          </mxGeometry>
        </mxCell>
        <mxCell id="eXfUIlzydASTsSaG7gEn-41" value="micro-service-a" style="rounded=1;whiteSpace=wrap;html=1;" vertex="1" parent="1">
          <mxGeometry x="240" y="580" width="120" height="60" as="geometry" />
        </mxCell>
        <mxCell id="eXfUIlzydASTsSaG7gEn-42" value="3.a.Response" style="edgeStyle=orthogonalEdgeStyle;rounded=0;orthogonalLoop=1;jettySize=auto;html=1;exitX=0;exitY=0.75;exitDx=0;exitDy=0;entryX=1;entryY=0.75;entryDx=0;entryDy=0;" edge="1" parent="1" source="eXfUIlzydASTsSaG7gEn-43" target="eXfUIlzydASTsSaG7gEn-41">
          <mxGeometry relative="1" as="geometry" />
        </mxCell>
        <mxCell id="eXfUIlzydASTsSaG7gEn-43" value="micro-service-b" style="rounded=1;whiteSpace=wrap;html=1;" vertex="1" parent="1">
          <mxGeometry x="490" y="580" width="120" height="60" as="geometry" />
        </mxCell>
        <mxCell id="eXfUIlzydASTsSaG7gEn-44" value="&lt;h1&gt;Sincrona&lt;br&gt;&lt;/h1&gt;" style="text;html=1;strokeColor=none;fillColor=none;spacing=5;spacingTop=-20;whiteSpace=wrap;overflow=hidden;rounded=0;" vertex="1" parent="1">
          <mxGeometry x="100" y="540" width="140" height="40" as="geometry" />
        </mxCell>
        <mxCell id="eXfUIlzydASTsSaG7gEn-45" value="&lt;h1&gt;Assincrona&lt;br&gt;&lt;/h1&gt;" style="text;html=1;strokeColor=none;fillColor=none;spacing=5;spacingTop=-20;whiteSpace=wrap;overflow=hidden;rounded=0;" vertex="1" parent="1">
          <mxGeometry x="355" y="540" width="140" height="40" as="geometry" />
        </mxCell>
        <mxCell id="eXfUIlzydASTsSaG7gEn-46" value="micro-service-c" style="rounded=1;whiteSpace=wrap;html=1;" vertex="1" parent="1">
          <mxGeometry x="490" y="650" width="120" height="60" as="geometry" />
        </mxCell>
        <mxCell id="eXfUIlzydASTsSaG7gEn-47" value="2.Request" style="edgeStyle=orthogonalEdgeStyle;rounded=0;orthogonalLoop=1;jettySize=auto;html=1;exitX=0.75;exitY=1;exitDx=0;exitDy=0;entryX=0;entryY=0.25;entryDx=0;entryDy=0;fontColor=#0000FF;strokeColor=#0000FF;" edge="1" parent="1" source="eXfUIlzydASTsSaG7gEn-41" target="eXfUIlzydASTsSaG7gEn-46">
          <mxGeometry relative="1" as="geometry">
            <mxPoint x="360" y="665" as="sourcePoint" />
            <mxPoint x="470" y="670" as="targetPoint" />
          </mxGeometry>
        </mxCell>
        <mxCell id="eXfUIlzydASTsSaG7gEn-48" value="3.b.Response" style="edgeStyle=orthogonalEdgeStyle;rounded=0;orthogonalLoop=1;jettySize=auto;html=1;exitX=0;exitY=0.75;exitDx=0;exitDy=0;entryX=0.25;entryY=1;entryDx=0;entryDy=0;" edge="1" parent="1" source="eXfUIlzydASTsSaG7gEn-46" target="eXfUIlzydASTsSaG7gEn-41">
          <mxGeometry relative="1" as="geometry">
            <mxPoint x="490" y="695" as="sourcePoint" />
            <mxPoint x="360" y="695" as="targetPoint" />
          </mxGeometry>
        </mxCell>
        <mxCell id="eXfUIlzydASTsSaG7gEn-49" value="Não há qualquer garantia minima na comunicaćão" style="text;html=1;strokeColor=none;fillColor=none;align=left;verticalAlign=middle;whiteSpace=wrap;rounded=0;fontColor=#FF0000;" vertex="1" parent="1">
          <mxGeometry x="410" y="480" width="140" height="30" as="geometry" />
        </mxCell>
      </root>
    </mxGraphModel>
  </diagram>
</mxfile>
